# xmcd CD database generated by RipIT
#
# Track frame offsets:
# 150
# 12370
# 29937
# 47526
# 64037
# 79943
# 95924
# 110436
# 122995
# 141892
# 165733
# 179811
# 195408
# 208834
# 224336
# 240449
# 253815
# 270915
# 285679
#
# Disc length: 4023 seconds
#
# Revision: 0
# Processed by: cddbd v1.5.2PL0 Copyright (c) Steve Scherf et al.
# Submitted via: RipIT 3.9.0 www.suwald.com/ripit/ripit.html on 2010-08-13 at 17:42
#
DISCID=260fb513
DTITLE=Norah Jones - The Fall (Limited Edition)
DYEAR=2009
DGENRE=
TTITLE0=Chasing Pirates
TTITLE1=Even Though
TTITLE2=Light as a Feather
TTITLE3=Young Blood
TTITLE4=I Wouldn't Need You
TTITLE5=Waiting
TTITLE6=It's Gonna Be
TTITLE7=You've Ruined Me
TTITLE8=Back to Manhattan
TTITLE9=Stuck
TTITLE10=December
TTITLE11=Tell Your Mama
TTITLE12=Man of the Hour
TTITLE13=It's Gonna Be (live)
TTITLE14=Waiting (live)
TTITLE15=You've Ruined Me (live)
TTITLE16=Jesus, etc. (live)
TTITLE17=Cry Cry Cry (live)
TTITLE18=Strangers (live) 
EXTD=
EXTT0=
EXTT1=
EXTT2=
EXTT3=
EXTT4=
EXTT5=
EXTT6=
EXTT7=
EXTT8=
EXTT9=
EXTT10=
EXTT11=
EXTT12=
EXTT13=
EXTT14=
EXTT15=
EXTT16=
EXTT17=
EXTT18=
PLAYORDER=
